<svg width="556" height="631" viewBox="0 0 556 631" fill="none" xmlns="http://www.w3.org/2000/svg">
<path d="M222.377 350.76V375.94C222.377 393.717 224.758 407.209 229.52 416.415C234.599 425.621 243.328 431.97 255.708 435.462C268.088 438.636 285.231 440.224 307.135 440.224C331.578 440.224 350.942 438.318 365.228 434.509C379.512 430.699 390.464 423.558 398.083 413.082C406.019 402.606 412.21 387.527 416.654 367.846H434.748L427.605 461.651H120V443.557C134.92 442.922 146.031 441.335 153.332 438.795C160.951 435.938 166.03 430.7 168.569 423.081C171.109 415.462 172.379 404.193 172.379 389.273V350.76H222.377ZM269.518 113.095C255.868 113.412 245.709 115.158 239.043 118.332C232.377 121.189 227.932 126.586 225.71 134.522C223.488 142.459 222.377 154.521 222.377 170.711V207H172.379V167.378C172.379 152.458 171.268 141.347 169.046 134.046C166.824 126.427 162.22 121.189 155.236 118.332C148.57 115.475 138.412 113.73 124.762 113.095V95H269.518V113.095Z" fill="white"/>
<path d="M421.487 252.075C420.882 246.966 418.428 242.999 414.126 240.176C409.823 237.352 404.546 235.94 398.293 235.94C393.722 235.94 389.722 236.68 386.293 238.159C382.898 239.638 380.242 241.672 378.326 244.26C376.444 246.848 375.503 249.789 375.503 253.084C375.503 255.84 376.158 258.21 377.469 260.193C378.814 262.143 380.528 263.773 382.612 265.084C384.696 266.361 386.881 267.42 389.167 268.26C391.453 269.067 393.554 269.723 395.47 270.227L405.957 273.051C408.647 273.756 411.638 274.731 414.932 275.975C418.26 277.219 421.437 278.916 424.462 281.068C427.521 283.185 430.042 285.908 432.025 289.236C434.008 292.564 435 296.648 435 301.488C435 307.068 433.538 312.11 430.613 316.615C427.723 321.119 423.487 324.699 417.907 327.354C412.361 330.01 405.621 331.338 397.688 331.338C390.293 331.338 383.89 330.144 378.478 327.758C373.099 325.371 368.864 322.043 365.772 317.774C362.713 313.505 360.981 308.547 360.578 302.9H373.486C373.822 306.799 375.133 310.026 377.419 312.581C379.738 315.102 382.663 316.984 386.192 318.228C389.755 319.438 393.587 320.043 397.688 320.043C402.461 320.043 406.747 319.27 410.546 317.724C414.344 316.144 417.353 313.959 419.571 311.169C421.79 308.345 422.899 305.051 422.899 301.286C422.899 297.858 421.941 295.068 420.025 292.917C418.109 290.765 415.588 289.017 412.462 287.673C409.336 286.328 405.957 285.152 402.327 284.143L389.621 280.513C381.553 278.193 375.167 274.882 370.461 270.58C365.755 266.277 363.402 260.647 363.402 253.689C363.402 247.907 364.965 242.865 368.091 238.562C371.251 234.226 375.486 230.865 380.797 228.478C386.142 226.058 392.108 224.848 398.697 224.848C405.352 224.848 411.268 226.041 416.445 228.428C421.622 230.781 425.723 234.008 428.748 238.108C431.807 242.209 433.42 246.865 433.588 252.075H421.487Z" fill="white"/>
<path d="M343.99 277.891C343.99 288.782 342.024 298.194 338.091 306.127C334.158 314.06 328.763 320.178 321.905 324.48C315.048 328.783 307.216 330.934 298.409 330.934C289.602 330.934 281.77 328.783 274.913 324.48C268.055 320.178 262.66 314.06 258.727 306.127C254.795 298.194 252.828 288.782 252.828 277.891C252.828 267 254.795 257.588 258.727 249.655C262.66 241.722 268.055 235.604 274.913 231.302C281.77 226.999 289.602 224.848 298.409 224.848C307.216 224.848 315.048 226.999 321.905 231.302C328.763 235.604 334.158 241.722 338.091 249.655C342.024 257.588 343.99 267 343.99 277.891ZM331.889 277.891C331.889 268.95 330.393 261.403 327.401 255.252C324.443 249.1 320.426 244.445 315.351 241.285C310.309 238.125 304.661 236.545 298.409 236.545C292.157 236.545 286.493 238.125 281.417 241.285C276.375 244.445 272.358 249.1 269.366 255.252C266.408 261.403 264.929 268.95 264.929 277.891C264.929 286.832 266.408 294.379 269.366 300.53C272.358 306.682 276.375 311.337 281.417 314.497C286.493 317.657 292.157 319.236 298.409 319.236C304.661 319.236 310.309 317.657 315.351 314.497C320.426 311.337 324.443 306.682 327.401 300.53C330.393 294.379 331.889 286.832 331.889 277.891Z" fill="white"/>
<path d="M172 329.521V226.258H234.321V237.351H184.505V272.242H231.094V283.335H184.505V318.428H235.128V329.521H172Z" fill="white"/>
<path d="M7.86506 625V606.091H14.956C16.4086 606.091 17.6274 606.362 18.6122 606.903C19.6032 607.445 20.3511 608.19 20.8558 609.138C21.3667 610.08 21.6222 611.151 21.6222 612.351C21.6222 613.563 21.3667 614.641 20.8558 615.582C20.3449 616.524 19.5909 617.266 18.5938 617.808C17.5966 618.343 16.3686 618.611 14.9098 618.611H10.2102V615.795H14.4482C15.2976 615.795 15.9931 615.647 16.5348 615.352C17.0765 615.056 17.4766 614.65 17.7351 614.133C17.9998 613.616 18.1321 613.022 18.1321 612.351C18.1321 611.68 17.9998 611.089 17.7351 610.578C17.4766 610.067 17.0734 609.67 16.5256 609.387C15.9839 609.098 15.2853 608.953 14.4297 608.953H11.2905V625H7.86506ZM37.8575 625V606.091H44.9484C46.401 606.091 47.6198 606.343 48.6046 606.848C49.5956 607.353 50.3435 608.061 50.8482 608.972C51.3591 609.876 51.6146 610.932 51.6146 612.138C51.6146 613.351 51.3561 614.404 50.839 615.296C50.3281 616.183 49.5741 616.869 48.5769 617.355C47.5798 617.835 46.3549 618.075 44.9022 618.075H39.8518V615.232H44.4406C45.29 615.232 45.9856 615.115 46.5272 614.881C47.0689 614.641 47.469 614.293 47.7275 613.837C47.9922 613.376 48.1245 612.809 48.1245 612.138C48.1245 611.468 47.9922 610.895 47.7275 610.421C47.4628 609.941 47.0597 609.578 46.518 609.332C45.9763 609.079 45.2777 608.953 44.4221 608.953H41.2829V625H37.8575ZM47.6259 616.432L52.3071 625H48.4846L43.8866 616.432H47.6259ZM84.9239 615.545C84.9239 617.583 84.5423 619.328 83.7791 620.781C83.022 622.227 81.9879 623.335 80.6768 624.104C79.3719 624.874 77.8915 625.259 76.2357 625.259C74.58 625.259 73.0965 624.874 71.7854 624.104C70.4805 623.329 69.4464 622.218 68.6832 620.771C67.9261 619.319 67.5475 617.577 67.5475 615.545C67.5475 613.508 67.9261 611.766 68.6832 610.32C69.4464 608.867 70.4805 607.756 71.7854 606.987C73.0965 606.217 74.58 605.832 76.2357 605.832C77.8915 605.832 79.3719 606.217 80.6768 606.987C81.9879 607.756 83.022 608.867 83.7791 610.32C84.5423 611.766 84.9239 613.508 84.9239 615.545ZM81.4801 615.545C81.4801 614.111 81.2554 612.902 80.806 611.917C80.3629 610.926 79.7473 610.178 78.9595 609.673C78.1716 609.162 77.2637 608.907 76.2357 608.907C75.2078 608.907 74.2999 609.162 73.512 609.673C72.7241 610.178 72.1055 610.926 71.6562 611.917C71.213 612.902 70.9914 614.111 70.9914 615.545C70.9914 616.98 71.213 618.192 71.6562 619.183C72.1055 620.168 72.7241 620.916 73.512 621.427C74.2999 621.932 75.2078 622.184 76.2357 622.184C77.2637 622.184 78.1716 621.932 78.9595 621.427C79.7473 620.916 80.3629 620.168 80.806 619.183C81.2554 618.192 81.4801 616.98 81.4801 615.545ZM108.883 606.091H112.28V619.386C112.274 620.605 112.016 621.655 111.505 622.535C110.994 623.409 110.28 624.083 109.363 624.557C108.452 625.025 107.39 625.259 106.177 625.259C105.069 625.259 104.072 625.062 103.186 624.668C102.306 624.268 101.607 623.677 101.09 622.895C100.573 622.113 100.314 621.141 100.314 619.977H103.721C103.728 620.488 103.838 620.928 104.054 621.298C104.275 621.667 104.58 621.95 104.968 622.147C105.356 622.344 105.802 622.442 106.307 622.442C106.854 622.442 107.319 622.329 107.701 622.101C108.082 621.867 108.372 621.522 108.569 621.067C108.772 620.611 108.876 620.051 108.883 619.386V606.091ZM129.257 625V606.091H141.555V608.962H132.682V614.096H140.918V616.967H132.682V622.129H141.629V625H129.257ZM174.495 612.471H171.042C170.943 611.905 170.762 611.403 170.497 610.966C170.232 610.523 169.903 610.147 169.509 609.839C169.115 609.532 168.666 609.301 168.161 609.147C167.663 608.987 167.124 608.907 166.545 608.907C165.517 608.907 164.606 609.165 163.812 609.683C163.018 610.193 162.397 610.944 161.947 611.935C161.498 612.92 161.273 614.124 161.273 615.545C161.273 616.992 161.498 618.211 161.947 619.202C162.403 620.187 163.025 620.931 163.812 621.436C164.606 621.935 165.514 622.184 166.536 622.184C167.102 622.184 167.632 622.11 168.124 621.962C168.623 621.808 169.069 621.584 169.463 621.288C169.863 620.993 170.199 620.63 170.469 620.199C170.746 619.768 170.937 619.276 171.042 618.722L174.495 618.74C174.366 619.639 174.086 620.482 173.655 621.27C173.23 622.058 172.673 622.753 171.984 623.357C171.294 623.954 170.488 624.421 169.565 624.76C168.641 625.092 167.616 625.259 166.49 625.259C164.828 625.259 163.345 624.874 162.04 624.104C160.735 623.335 159.707 622.224 158.956 620.771C158.205 619.319 157.829 617.577 157.829 615.545C157.829 613.508 158.208 611.766 158.965 610.32C159.722 608.867 160.753 607.756 162.058 606.987C163.363 606.217 164.84 605.832 166.49 605.832C167.543 605.832 168.521 605.98 169.426 606.276C170.331 606.571 171.137 607.005 171.845 607.577C172.553 608.144 173.135 608.839 173.59 609.664C174.052 610.483 174.353 611.418 174.495 612.471ZM190.061 608.962V606.091H205.148V608.962H199.303V625H195.905V608.962H190.061ZM241.025 606.091H245.217L250.831 619.793H251.052L256.666 606.091H260.858V625H257.571V612.009H257.395L252.169 624.945H249.713L244.487 611.982H244.312V625H241.025V606.091ZM280.276 625H276.62L283.277 606.091H287.505L294.171 625H290.515L285.465 609.969H285.317L280.276 625ZM280.396 617.586H290.368V620.337H280.396V617.586ZM325.461 606.091V625H322.414L313.504 612.12H313.348V625H309.922V606.091H312.987L321.888 618.98H322.054V606.091H325.461ZM344.882 625H341.226L347.883 606.091H352.111L358.777 625H355.121L350.071 609.969H349.923L344.882 625ZM345.002 617.586H354.973V620.337H345.002V617.586ZM386.307 612.129C386.153 611.631 385.941 611.184 385.67 610.79C385.405 610.39 385.085 610.049 384.71 609.766C384.34 609.482 383.916 609.27 383.436 609.129C382.955 608.981 382.432 608.907 381.866 608.907C380.85 608.907 379.945 609.162 379.151 609.673C378.357 610.184 377.733 610.935 377.277 611.926C376.828 612.911 376.603 614.111 376.603 615.527C376.603 616.955 376.828 618.165 377.277 619.156C377.726 620.147 378.351 620.901 379.151 621.418C379.952 621.929 380.881 622.184 381.94 622.184C382.9 622.184 383.731 621.999 384.433 621.63C385.141 621.261 385.685 620.737 386.067 620.06C386.449 619.377 386.639 618.577 386.639 617.66L387.415 617.78H382.281V615.102H389.954V617.374C389.954 618.992 389.609 620.393 388.92 621.575C388.23 622.756 387.283 623.667 386.076 624.308C384.87 624.942 383.485 625.259 381.921 625.259C380.179 625.259 378.65 624.868 377.333 624.086C376.021 623.298 374.997 622.181 374.258 620.734C373.525 619.282 373.159 617.558 373.159 615.564C373.159 614.037 373.375 612.674 373.806 611.474C374.243 610.273 374.852 609.255 375.634 608.418C376.415 607.574 377.333 606.934 378.385 606.497C379.438 606.054 380.583 605.832 381.82 605.832C382.866 605.832 383.842 605.986 384.747 606.294C385.651 606.596 386.455 607.027 387.156 607.587C387.864 608.147 388.446 608.812 388.901 609.581C389.357 610.35 389.655 611.2 389.797 612.129H386.307ZM406.526 625V606.091H418.825V608.962H409.952V614.096H418.188V616.967H409.952V622.129H418.898V625H406.526ZM435.579 606.091H439.771L445.385 619.793H445.606L451.22 606.091H455.412V625H452.125V612.009H451.949L446.723 624.945H444.268L439.042 611.982H438.866V625H435.579V606.091ZM472.402 625V606.091H484.7V608.962H475.827V614.096H484.063V616.967H475.827V622.129H484.774V625H472.402ZM516.994 606.091V625H513.947L505.037 612.12H504.88V625H501.455V606.091H504.52L513.421 618.98H513.587V606.091H516.994ZM533.155 608.962V606.091H548.242V608.962H542.397V625H539V608.962H533.155Z" fill="white"/>
<rect x="4" y="4" width="548" height="548" stroke="white" stroke-width="8"/>
</svg>
