<svg width="315" height="367" viewBox="0 0 315 367" fill="none" xmlns="http://www.w3.org/2000/svg">
<path d="M102.377 255.76V280.94C102.377 298.717 104.758 312.209 109.52 321.415C114.599 330.621 123.328 336.97 135.708 340.462C148.088 343.636 165.231 345.224 187.135 345.224C211.578 345.224 230.942 343.318 245.228 339.509C259.512 335.699 270.464 328.558 278.083 318.082C286.019 307.606 292.21 292.527 296.654 272.846H314.748L307.605 366.651H0V348.557C14.92 347.922 26.0308 346.334 33.332 343.795C40.9507 340.938 46.0298 335.7 48.5693 328.081C51.1089 320.462 52.3789 309.193 52.3789 294.273V255.76H102.377ZM149.518 18.0947C135.868 18.4122 125.709 20.1577 119.043 23.332C112.377 26.1891 107.932 31.5863 105.71 39.5225C103.488 47.4586 102.377 59.5214 102.377 75.7109V112H52.3789V72.3779C52.3789 57.458 51.268 46.3472 49.0459 39.0459C46.8238 31.4272 42.2202 26.1891 35.2363 23.332C28.5699 20.4751 18.4117 18.7296 4.76172 18.0947V0H149.518V18.0947Z" fill="#C9A15D"/>
<path d="M301.487 157.075C300.882 151.966 298.428 147.999 294.126 145.176C289.823 142.352 284.546 140.94 278.293 140.94C273.722 140.94 269.722 141.68 266.293 143.159C262.898 144.638 260.242 146.672 258.326 149.26C256.444 151.848 255.503 154.789 255.503 158.084C255.503 160.84 256.158 163.21 257.469 165.193C258.814 167.143 260.528 168.773 262.612 170.084C264.696 171.361 266.881 172.42 269.167 173.26C271.453 174.067 273.554 174.723 275.47 175.227L285.957 178.051C288.647 178.756 291.638 179.731 294.932 180.975C298.26 182.219 301.437 183.916 304.462 186.068C307.521 188.185 310.042 190.908 312.025 194.236C314.008 197.564 315 201.648 315 206.488C315 212.068 313.538 217.11 310.613 221.615C307.723 226.119 303.487 229.699 297.907 232.354C292.361 235.01 285.621 236.338 277.688 236.338C270.293 236.338 263.89 235.144 258.478 232.758C253.099 230.371 248.864 227.043 245.772 222.774C242.713 218.505 240.981 213.547 240.578 207.9H253.486C253.822 211.799 255.133 215.026 257.419 217.581C259.738 220.102 262.663 221.984 266.192 223.228C269.755 224.438 273.587 225.043 277.688 225.043C282.461 225.043 286.747 224.27 290.546 222.724C294.344 221.144 297.353 218.959 299.571 216.169C301.79 213.345 302.899 210.051 302.899 206.286C302.899 202.858 301.941 200.068 300.025 197.917C298.109 195.765 295.588 194.017 292.462 192.673C289.336 191.328 285.957 190.152 282.327 189.143L269.621 185.513C261.553 183.193 255.167 179.882 250.461 175.58C245.755 171.277 243.402 165.647 243.402 158.689C243.402 152.907 244.965 147.865 248.091 143.562C251.251 139.226 255.486 135.865 260.797 133.478C266.142 131.058 272.108 129.848 278.697 129.848C285.352 129.848 291.268 131.041 296.445 133.428C301.622 135.781 305.723 139.008 308.748 143.108C311.807 147.209 313.42 151.865 313.588 157.075H301.487Z" fill="#C9A15D"/>
<path d="M223.99 182.891C223.99 193.782 222.024 203.194 218.091 211.127C214.158 219.06 208.763 225.178 201.905 229.48C195.048 233.783 187.216 235.934 178.409 235.934C169.602 235.934 161.77 233.783 154.913 229.48C148.055 225.178 142.66 219.06 138.727 211.127C134.795 203.194 132.828 193.782 132.828 182.891C132.828 172 134.795 162.588 138.727 154.655C142.66 146.722 148.055 140.604 154.913 136.302C161.77 131.999 169.602 129.848 178.409 129.848C187.216 129.848 195.048 131.999 201.905 136.302C208.763 140.604 214.158 146.722 218.091 154.655C222.024 162.588 223.99 172 223.99 182.891ZM211.889 182.891C211.889 173.95 210.393 166.403 207.401 160.252C204.443 154.1 200.426 149.445 195.351 146.285C190.309 143.125 184.661 141.545 178.409 141.545C172.157 141.545 166.493 143.125 161.417 146.285C156.375 149.445 152.358 154.1 149.366 160.252C146.408 166.403 144.929 173.95 144.929 182.891C144.929 191.832 146.408 199.379 149.366 205.53C152.358 211.682 156.375 216.337 161.417 219.497C166.493 222.657 172.157 224.236 178.409 224.236C184.661 224.236 190.309 222.657 195.351 219.497C200.426 216.337 204.443 211.682 207.401 205.53C210.393 199.379 211.889 191.832 211.889 182.891Z" fill="#C9A15D"/>
<path d="M52 234.521V131.258H114.321V142.351H64.5045V177.242H111.094V188.335H64.5045V223.428H115.128V234.521H52Z" fill="#C9A15D"/>
</svg>
